<svg width="110" height="46" viewBox="0 0 110 46" fill="none" xmlns="http://www.w3.org/2000/svg">
<rect width="110" height="46" rx="20" fill="#3B3B3B"/>
<path d="M42.9734 17.44H39.8694L37.9814 23.216L37.2934 25.584H37.2614L36.5894 23.2L34.6854 17.44H31.4854V28H33.4854V22.496L33.3734 19.408H33.4054L36.3174 28H38.1254L41.0534 19.408H41.0854L40.9894 22.496V28H42.9734V17.44ZM50.2798 17.28C47.1438 17.28 45.1918 19.328 45.1918 22.72C45.1918 26.112 47.1438 28.16 50.2798 28.16C53.4158 28.16 55.3518 26.112 55.3518 22.72C55.3518 19.328 53.4158 17.28 50.2798 17.28ZM50.2798 19.088C52.0398 19.088 53.0638 20.368 53.0638 22.72C53.0638 25.072 52.0398 26.352 50.2798 26.352C48.5038 26.352 47.4798 25.072 47.4798 22.72C47.4798 20.368 48.5038 19.088 50.2798 19.088ZM62.1391 17.28C59.0031 17.28 57.0511 19.328 57.0511 22.72C57.0511 26.112 59.0031 28.16 62.1391 28.16C65.2751 28.16 67.2111 26.112 67.2111 22.72C67.2111 19.328 65.2751 17.28 62.1391 17.28ZM62.1391 19.088C63.8991 19.088 64.9231 20.368 64.9231 22.72C64.9231 25.072 63.8991 26.352 62.1391 26.352C60.3631 26.352 59.3391 25.072 59.3391 22.72C59.3391 20.368 60.3631 19.088 62.1391 19.088ZM78.5105 17.44H76.5265V23.552L76.5905 25.424H76.5585L75.6465 23.632L71.9505 17.44H69.4385V28H71.4225V21.888L71.3585 20.016H71.3745L72.2865 21.792L75.9825 28H78.5105V17.44Z" fill="white"/>
</svg>
