<svg width="150" height="46" viewBox="0 0 150 46" fill="none" xmlns="http://www.w3.org/2000/svg">
<rect width="150" height="46" rx="20" fill="#3B3B3B"/>
<path d="M38.3263 28H40.6143L36.7583 17.44H34.1183L30.2623 28H32.5183L33.3823 25.424H37.4623L38.3263 28ZM33.9423 23.792L34.9503 20.784L35.3983 19.216H35.4303L35.9103 20.816L36.9183 23.792H33.9423ZM51.2527 17.44H49.2687V23.552L49.3327 25.424H49.3007L48.3887 23.632L44.6927 17.44H42.1807V28H44.1647V21.888L44.1007 20.016H44.1167L45.0287 21.792L48.7247 28H51.2527V17.44ZM56.2168 17.44H54.0088V28H56.2168V17.44ZM70.4499 17.44H67.3459L65.4579 23.216L64.7699 25.584H64.7379L64.0659 23.2L62.1619 17.44H58.9619V28H60.9619V22.496L60.8499 19.408H60.8819L63.7939 28H65.6019L68.5299 19.408H68.5619L68.4659 22.496V28H70.4499V17.44ZM80.0763 28H82.3643L78.5083 17.44H75.8683L72.0123 28H74.2683L75.1323 25.424H79.2123L80.0763 28ZM75.6923 23.792L76.7003 20.784L77.1483 19.216H77.1803L77.6603 20.816L78.6683 23.792H75.6923ZM90.8608 17.44H81.5648V19.216H85.1168V28H87.3248V19.216H90.8608V17.44ZM94.8731 17.44H92.6651V28H94.8731V17.44ZM102.178 17.28C99.0422 17.28 97.0902 19.328 97.0902 22.72C97.0902 26.112 99.0422 28.16 102.178 28.16C105.314 28.16 107.25 26.112 107.25 22.72C107.25 19.328 105.314 17.28 102.178 17.28ZM102.178 19.088C103.938 19.088 104.962 20.368 104.962 22.72C104.962 25.072 103.938 26.352 102.178 26.352C100.402 26.352 99.3782 25.072 99.3782 22.72C99.3782 20.368 100.402 19.088 102.178 19.088ZM118.55 17.44H116.566V23.552L116.63 25.424H116.598L115.686 23.632L111.99 17.44H109.478V28H111.462V21.888L111.398 20.016H111.414L112.326 21.792L116.022 28H118.55V17.44Z" fill="white"/>
</svg>
