<svg width="175" height="46" viewBox="0 0 175 46" fill="none" xmlns="http://www.w3.org/2000/svg">
<rect width="175" height="46" rx="20" fill="#3B3B3B"/>
<path d="M33.7949 17.44H31.5869V28H33.7949V17.44ZM38.7481 26.224V17.44H36.5401V28H44.3161V26.224H38.7481ZM48.3574 26.224V17.44H46.1494V28H53.9254V26.224H48.3574ZM64.4666 17.44H62.2426V23.744C62.2426 25.52 61.5066 26.352 59.9546 26.352C58.4026 26.352 57.6506 25.52 57.6506 23.744V17.44H55.4426V23.84C55.4426 26.72 57.0106 28.16 59.9546 28.16C62.8986 28.16 64.4666 26.72 64.4666 23.84V17.44ZM70.8961 17.28C68.1601 17.28 66.5761 18.736 66.5761 20.608C66.5761 22.368 67.6961 23.264 70.6401 23.856C72.3841 24.208 72.9441 24.544 72.9441 25.12C72.9441 25.92 72.2081 26.352 70.8481 26.352C69.4241 26.352 68.4161 26 67.5841 24.624L66.2721 26.192C67.1681 27.472 68.5281 28.16 70.9281 28.16C73.4561 28.16 75.2641 26.976 75.2641 24.992C75.2641 23.232 74.1921 22.352 71.3441 21.824C69.4881 21.488 68.9121 21.104 68.9121 20.4C68.9121 19.648 69.5841 19.088 70.9121 19.088C72.3361 19.088 73.2161 19.664 73.7601 20.8L75.2801 19.312C74.2081 17.904 72.8641 17.28 70.8961 17.28ZM85.3764 17.44H76.0804V19.216H79.6324V28H81.8404V19.216H85.3764V17.44ZM93.8207 28H96.3007L93.5167 23.712C94.8927 23.28 95.6767 22.224 95.6767 20.704C95.6767 18.624 94.2367 17.44 91.8367 17.44H87.1807V28H89.3567V23.952H91.3407L93.8207 28ZM89.3567 19.2H91.5487C92.8287 19.2 93.4207 19.68 93.4207 20.736C93.4207 21.792 92.8287 22.272 91.5487 22.272H89.3567V19.2ZM104.936 28H107.224L103.368 17.44H100.728L96.8717 28H99.1277L99.9917 25.424H104.072L104.936 28ZM100.552 23.792L101.56 20.784L102.008 19.216H102.04L102.52 20.816L103.528 23.792H100.552ZM115.72 17.44H106.424V19.216H109.976V28H112.184V19.216H115.72V17.44ZM119.732 17.44H117.524V28H119.732V17.44ZM127.038 17.28C123.902 17.28 121.95 19.328 121.95 22.72C121.95 26.112 123.902 28.16 127.038 28.16C130.174 28.16 132.11 26.112 132.11 22.72C132.11 19.328 130.174 17.28 127.038 17.28ZM127.038 19.088C128.798 19.088 129.822 20.368 129.822 22.72C129.822 25.072 128.798 26.352 127.038 26.352C125.262 26.352 124.238 25.072 124.238 22.72C124.238 20.368 125.262 19.088 127.038 19.088ZM143.409 17.44H141.425V23.552L141.489 25.424H141.457L140.545 23.632L136.849 17.44H134.337V28H136.321V21.888L136.257 20.016H136.273L137.185 21.792L140.881 28H143.409V17.44Z" fill="white"/>
</svg>
